<svg width="80" height="80" viewBox="0 0 80 80" fill="none" xmlns="http://www.w3.org/2000/svg">
<path fill-rule="evenodd" clip-rule="evenodd" d="M80 40C80 49.7479 76.5131 58.6814 70.7185 65.6213C69.9732 65.2254 69.116 65 68.2041 65C67.4704 65 66.7722 65.1459 66.1392 65.409C65.4475 63.4276 63.4993 62 61.2041 62C59.4748 62 57.9424 62.8104 56.9961 64.0575C56.7379 64.0197 56.4734 64 56.2041 64C54.5616 64 53.0968 64.7311 52.143 65.8731C51.3067 65.3223 50.2946 65 49.2041 65C48.9672 65 48.734 65.0152 48.5054 65.0447C47.7132 63.2549 45.8663 62 43.7143 62C43.396 62 43.0844 62.0275 42.7819 62.08C41.8944 61.4038 40.7718 61 39.5511 61C38.2136 61 36.994 61.4847 36.0722 62.2813C35.8762 62.2151 35.6748 62.1599 35.4688 62.1165C35.329 62.0421 35.1694 62 35 62H34.347H33V61C33 60.4477 32.5523 60 32 60C32 59.4477 31.5523 59 31 59H29.9505L28.2176 26.9763C28.6653 26.8769 29 26.4775 29 26V25V24H28V20.0393H30V20.0001C30 19.4478 29.5523 19.0001 29 19.0001H19C18.4477 19.0001 18 19.4478 18 20.0001V20.0393H20V24H19V25V26C19 26.4775 19.3347 26.8769 19.7824 26.9763L18.0495 59H17C16.4477 59 16 59.4477 16 60C15.5179 60 15.1155 60.3411 15.021 60.7951C14.2352 60.3081 13.304 60.019 12.3039 60.0009C12.3723 59.6775 12.4082 59.3428 12.4082 59C12.4082 56.2386 10.0782 54 7.20408 54C5.61051 54 4.18423 54.6882 3.22962 55.7721C1.1511 50.9327 0 45.6008 0 40C0 17.9086 17.9086 0 40 0C62.0914 0 80 17.9086 80 40ZM50.2041 77H46.8367H24.7737C29.4671 78.9335 34.609 80 40 80C45.391 80 50.5329 78.9335 55.2263 77H50.2041ZM25 16V15H23V16H21V17H20V18H19V19H29V18H28V17H27V16H25ZM25 20.0393H27V24H25V22V20.0393ZM23 22C23 21.7348 23.1054 21.4804 23.2929 21.2929C23.4804 21.1054 23.7348 21 24 21C24.2652 21 24.5196 21.1054 24.7071 21.2929C24.8946 21.4804 25 21.7348 25 22C25 22.1313 24.9741 22.2614 24.9239 22.3827C24.8736 22.504 24.8 22.6142 24.7071 22.7071C24.6142 22.8 24.504 22.8736 24.3827 22.9239C24.2614 22.9741 24.1313 23 24 23C23.8687 23 23.7386 22.9741 23.6173 22.9239C23.496 22.8736 23.3858 22.8 23.2929 22.7071C23.2 22.6142 23.1264 22.504 23.0761 22.3827C23.0259 22.2614 23 22.1313 23 22ZM23 22V24H21V20.0393H23V22ZM24.2835 21.7165C24.3587 21.7917 24.401 21.8937 24.401 22H24.4006C24.4006 22.0526 24.3903 22.1047 24.3701 22.1533C24.35 22.2019 24.3205 22.2461 24.2833 22.2833C24.2461 22.3205 24.2019 22.35 24.1533 22.3701C24.1047 22.3903 24.0526 22.4006 24 22.4006C23.9474 22.4006 23.8953 22.3903 23.8467 22.3701C23.7981 22.35 23.7539 22.3205 23.7167 22.2833C23.6795 22.2461 23.65 22.2019 23.6299 22.1533C23.6097 22.1047 23.5994 22.0526 23.5994 22H23.599C23.599 21.8937 23.6413 21.7917 23.7165 21.7165C23.7917 21.6413 23.8937 21.599 24 21.599C24.1063 21.599 24.2083 21.6413 24.2835 21.7165ZM29.1794 58.2565H28.1191V58.2564H29.1794L29.1794 58.2565ZM18.9115 56.5129H20.0236V56.5129H18.9115L18.9115 56.5129ZM19.0058 54.7693H20.0236V54.7693H19.0058L19.0058 54.7693ZM19.1002 53.0258H20.0236V53.0257H19.1002L19.1002 53.0258ZM19.1945 51.2822H20.0236V51.2821H19.1945V51.2822ZM19.2889 49.5386H20.0236V49.5385H19.2889L19.2889 49.5386ZM19.3832 47.795H20.0236V47.7949H19.3832L19.3832 47.795ZM19.4776 46.0514L19.4776 46.0514H20.0236V46.0514H19.4776ZM20.0236 44.3078H19.5719L19.5719 44.3078H20.0236V44.3078ZM19.6662 42.5642H20.0236V42.5642H19.6663L19.6662 42.5642ZM20.0236 40.8207H19.7606L19.7606 40.8206H20.0236V40.8207ZM28.1191 40.8206V40.8207H28.236L28.236 40.8206H28.1191ZM19.8549 39.0771H20.0236V39.077H19.8549L19.8549 39.0771ZM20.0236 37.3334V37.3334H19.9493L19.9493 37.3334H20.0236ZM28.1191 39.077V39.0771H28.1416L28.1416 39.077H28.1191ZM28.1191 42.5642V42.5642H28.3303V42.5642H28.1191ZM28.1191 44.3078V44.3078H28.4246L28.4246 44.3078H28.1191ZM28.1191 46.0514V46.0514H28.519L28.519 46.0514H28.1191ZM28.1191 47.7949V47.795H28.6133L28.6133 47.7949H28.1191ZM28.1191 49.5385H28.7077L28.7077 49.5386H28.1191V49.5385ZM28.1191 51.2821H28.802L28.802 51.2822H28.1191V51.2821ZM28.1191 53.0257H28.8964L28.8964 53.0258H28.1191V53.0257ZM28.1191 54.7693H28.9907L28.9907 54.7693H28.1191V54.7693ZM28.1191 56.5129H29.0851L29.0851 56.5129H28.1191V56.5129ZM18.8171 58.2564L18.8171 58.2565H20.0236V58.2564H18.8171ZM24 42C24.5523 42 25 42.4477 25 43V46H23V43C23 42.4477 23.4477 42 24 42ZM58.55 16.0931C58.55 22.4936 53.3613 27.6822 46.9609 27.6822C45.9375 27.6822 44.9451 27.5496 44 27.3005C46.2774 30.0613 49.7248 31.8212 53.5832 31.8212C60.4408 31.8212 66 26.262 66 19.4043C66 12.7355 60.7427 7.29451 54.1465 7C56.8289 9.12259 58.55 12.4069 58.55 16.0931ZM59.5 35C59.7761 35 60 35.2239 60 35.5C60 35.7761 60.2239 36 60.5 36C60.7761 36 61 36.2239 61 36.5C61 36.7761 60.7761 37 60.5 37C60.2239 37 60 37.2239 60 37.5C60 37.7761 59.7761 38 59.5 38C59.2239 38 59 37.7761 59 37.5C59 37.2239 58.7761 37 58.5 37C58.2239 37 58 36.7761 58 36.5C58 36.2239 58.2239 36 58.5 36C58.7761 36 59 35.7761 59 35.5C59 35.2239 59.2239 35 59.5 35ZM24 30C23.4477 30 23 30.4477 23 31V34H25V31C25 30.4477 24.5523 30 24 30ZM69 25.5C69 25.2239 68.7761 25 68.5 25C68.2239 25 68 25.2239 68 25.5C68 25.7761 67.7761 26 67.5 26C67.2239 26 67 26.2239 67 26.5C67 26.7761 67.2239 27 67.5 27C67.7761 27 68 27.2239 68 27.5C68 27.7761 68.2239 28 68.5 28C68.7761 28 69 27.7761 69 27.5C69 27.2239 69.2239 27 69.5 27C69.7761 27 70 26.7761 70 26.5C70 26.2239 69.7761 26 69.5 26C69.2239 26 69 25.7761 69 25.5ZM70.5 35C70.7761 35 71 35.2239 71 35.5C71 35.7761 71.2239 36 71.5 36C71.7761 36 72 36.2239 72 36.5C72 36.7761 71.7761 37 71.5 37C71.2239 37 71 37.2239 71 37.5C71 37.7761 70.7761 38 70.5 38C70.2239 38 70 37.7761 70 37.5C70 37.2239 69.7761 37 69.5 37C69.2239 37 69 36.7761 69 36.5C69 36.2239 69.2239 36 69.5 36C69.7761 36 70 35.7761 70 35.5C70 35.2239 70.2239 35 70.5 35ZM44 34.5C44 34.2239 43.7761 34 43.5 34C43.2239 34 43 34.2239 43 34.5C43 34.7761 42.7761 35 42.5 35C42.2239 35 42 35.2239 42 35.5C42 35.7761 42.2239 36 42.5 36C42.7761 36 43 36.2239 43 36.5C43 36.7761 43.2239 37 43.5 37C43.7761 37 44 36.7761 44 36.5C44 36.2239 44.2239 36 44.5 36C44.7761 36 45 35.7761 45 35.5C45 35.2239 44.7761 35 44.5 35C44.2239 35 44 34.7761 44 34.5ZM45.5 19C45.7761 19 46 19.2239 46 19.5C46 19.7761 46.2239 20 46.5 20C46.7761 20 47 20.2239 47 20.5C47 20.7761 46.7761 21 46.5 21C46.2239 21 46 21.2239 46 21.5C46 21.7761 45.7761 22 45.5 22C45.2239 22 45 21.7761 45 21.5C45 21.2239 44.7761 21 44.5 21C44.2239 21 44 20.7761 44 20.5C44 20.2239 44.2239 20 44.5 20C44.7761 20 45 19.7761 45 19.5C45 19.2239 45.2239 19 45.5 19ZM36 27.5C36 27.2239 35.7761 27 35.5 27C35.2239 27 35 27.2239 35 27.5C35 27.7761 34.7761 28 34.5 28C34.2239 28 34 28.2239 34 28.5C34 28.7761 34.2239 29 34.5 29C34.7761 29 35 29.2239 35 29.5C35 29.7761 35.2239 30 35.5 30C35.7761 30 36 29.7761 36 29.5C36 29.2239 36.2239 29 36.5 29C36.7761 29 37 28.7761 37 28.5C37 28.2239 36.7761 28 36.5 28C36.2239 28 36 27.7761 36 27.5ZM23.5 9C23.7761 9 24 9.22386 24 9.5C24 9.77614 24.2239 10 24.5 10C24.7761 10 25 10.2239 25 10.5C25 10.7761 24.7761 11 24.5 11C24.2239 11 24 11.2239 24 11.5C24 11.7761 23.7761 12 23.5 12C23.2239 12 23 11.7761 23 11.5C23 11.2239 22.7761 11 22.5 11C22.2239 11 22 10.7761 22 10.5C22 10.2239 22.2239 10 22.5 10C22.7761 10 23 9.77614 23 9.5C23 9.22386 23.2239 9 23.5 9ZM35 16.5C35 16.2239 34.7761 16 34.5 16C34.2239 16 34 16.2239 34 16.5C34 16.7761 33.7761 17 33.5 17C33.2239 17 33 17.2239 33 17.5C33 17.7761 33.2239 18 33.5 18C33.7761 18 34 18.2239 34 18.5C34 18.7761 34.2239 19 34.5 19C34.7761 19 35 18.7761 35 18.5C35 18.2239 35.2239 18 35.5 18C35.7761 18 36 17.7761 36 17.5C36 17.2239 35.7761 17 35.5 17C35.2239 17 35 16.7761 35 16.5ZM50.5 15C50.7761 15 51 15.2239 51 15.5C51 15.7761 51.2239 16 51.5 16C51.7761 16 52 16.2239 52 16.5C52 16.7761 51.7761 17 51.5 17C51.2239 17 51 17.2239 51 17.5C51 17.7761 50.7761 18 50.5 18C50.2239 18 50 17.7761 50 17.5C50 17.2239 49.7761 17 49.5 17C49.2239 17 49 16.7761 49 16.5C49 16.2239 49.2239 16 49.5 16C49.7761 16 50 15.7761 50 15.5C50 15.2239 50.2239 15 50.5 15ZM39 6.5C39 6.22386 38.7761 6 38.5 6C38.2239 6 38 6.22386 38 6.5C38 6.77614 37.7761 7 37.5 7C37.2239 7 37 7.22386 37 7.5C37 7.77614 37.2239 8 37.5 8C37.7761 8 38 8.22386 38 8.5C38 8.77614 38.2239 9 38.5 9C38.7761 9 39 8.77614 39 8.5C39 8.22386 39.2239 8 39.5 8C39.7761 8 40 7.77614 40 7.5C40 7.22386 39.7761 7 39.5 7C39.2239 7 39 6.77614 39 6.5ZM11.5 31C11.7761 31 12 31.2239 12 31.5C12 31.7761 12.2239 32 12.5 32C12.7761 32 13 32.2239 13 32.5C13 32.7761 12.7761 33 12.5 33C12.2239 33 12 33.2239 12 33.5C12 33.7761 11.7761 34 11.5 34C11.2239 34 11 33.7761 11 33.5C11 33.2239 10.7761 33 10.5 33C10.2239 33 10 32.7761 10 32.5C10 32.2239 10.2239 32 10.5 32C10.7761 32 11 31.7761 11 31.5C11 31.2239 11.2239 31 11.5 31ZM8 23.5C8 23.2239 7.77614 23 7.5 23C7.22386 23 7 23.2239 7 23.5C7 23.7761 6.77614 24 6.5 24C6.22386 24 6 24.2239 6 24.5C6 24.7761 6.22386 25 6.5 25C6.77614 25 7 25.2239 7 25.5C7 25.7761 7.22386 26 7.5 26C7.77614 26 8 25.7761 8 25.5C8 25.2239 8.22386 25 8.5 25C8.77614 25 9 24.7761 9 24.5C9 24.2239 8.77614 24 8.5 24C8.22386 24 8 23.7761 8 23.5ZM16.5 26C16.7761 26 17 26.2239 17 26.5C17 26.7761 17.2239 27 17.5 27C17.7761 27 18 27.2239 18 27.5C18 27.7761 17.7761 28 17.5 28C17.2239 28 17 28.2239 17 28.5C17 28.7761 16.7761 29 16.5 29C16.2239 29 16 28.7761 16 28.5C16 28.2239 15.7761 28 15.5 28C15.2239 28 15 27.7761 15 27.5C15 27.2239 15.2239 27 15.5 27C15.7761 27 16 26.7761 16 26.5C16 26.2239 16.2239 26 16.5 26Z" fill="#F9F9F9"/>
</svg>
